<svg width="97" height="104" viewBox="0 0 97 104" fill="none" xmlns="http://www.w3.org/2000/svg">
<path d="M12.5557 4.43652C19.1816 0.64497 27.2965 0.525494 34.0166 4.07812L34.6631 4.43262V4.43359L84.4756 32.9463L84.4775 32.9473C91.2957 36.8645 95.4999 44.0859 95.5 51.9062C95.5 59.7267 91.2958 66.9489 84.4775 70.8662L84.4756 70.8672L34.6631 99.3799C27.8223 103.292 19.3953 103.291 12.5557 99.377C5.71442 95.462 1.49493 88.2228 1.5 80.3838V23.4277C1.49534 15.5892 5.71474 8.35123 12.5557 4.43652ZM23.6123 16.6943C19.8357 16.6943 16.7989 19.7223 16.7988 23.4277V80.3848C16.7988 82.166 17.5129 83.8776 18.7891 85.1416C20.0633 86.4036 21.7937 87.1154 23.6016 87.1182C24.789 87.1042 25.9506 86.7787 26.9668 86.1738L26.9785 86.166L26.9902 86.1602L76.8027 57.7148L76.8086 57.7119C78.9026 56.5279 80.182 54.3235 80.1689 51.9492V51.9268C80.1898 49.606 78.9877 47.442 76.9971 46.2139L76.8027 46.0977L26.9902 17.6533L26.9668 17.6396C25.9537 17.0366 24.7961 16.7091 23.6123 16.6934V16.6943Z" fill="url(#paint0_linear_166_180)" fill-opacity="0.6" stroke="black" stroke-width="3"/>
<defs>
<linearGradient id="paint0_linear_166_180" x1="48.5" y1="3" x2="48.5" y2="100.813" gradientUnits="userSpaceOnUse">
<stop stop-color="#FFBB00"/>
<stop offset="1" stop-color="#EE4410"/>
</linearGradient>
</defs>
</svg>
